<?xml version="1.0" standalone="no"?>
<!DOCTYPE svg PUBLIC "-//W3C//DTD SVG 20010904//EN"
 "http://www.w3.org/TR/2001/REC-SVG-20010904/DTD/svg10.dtd">
<svg version="1.0" xmlns="http://www.w3.org/2000/svg"
 width="80.000000pt" height="80.000000pt" viewBox="0 0 80.000000 80.000000"
 preserveAspectRatio="xMidYMid meet">
<metadata>
Created by potrace 1.14, written by Peter Selinger 2001-2017
</metadata>
<g transform="translate(0.000000,80.000000) scale(0.100000,-0.100000)"
fill="#000000" stroke="none">
<path d="M226 793 c-23 -6 -98 -52 -107 -66 -4 -5 -14 -5 -27 2 -36 19 -62 14
-62 -13 0 -19 4 -23 20 -19 25 7 25 -2 1 -33 -15 -20 -19 -42 -20 -141 0 -65
-4 -132 -7 -149 -4 -19 0 -43 9 -60 8 -16 13 -38 11 -49 -7 -33 -11 -215 -6
-241 l4 -24 352 0 c328 0 352 1 353 18 4 43 14 94 24 118 12 33 7 38 -23 28
-13 -4 -26 -7 -30 -6 -4 1 -28 -9 -54 -23 -34 -18 -51 -22 -64 -15 -16 8 -17
15 -8 46 6 22 6 40 0 46 -5 5 1 29 16 59 19 38 25 67 27 127 1 43 5 84 9 91 4
7 8 34 8 61 -1 125 -119 223 -266 221 -30 0 -58 -1 -62 -3 -5 -1 -23 6 -41 15
-18 9 -33 16 -35 16 -2 -1 -12 -4 -22 -6z m326 -623 c-2 -17 -8 -33 -14 -36
-5 -3 -6 6 -2 23 12 50 23 59 16 13z"/>
</g>
</svg>
